<mxfile host="app.diagrams.net" agent="Mozilla/5.0 (Windows NT 10.0; Win64; x64) AppleWebKit/537.36 (KHTML, like Gecko) Chrome/130.0.0.0 Safari/537.36 Edg/130.0.0.0" version="24.8.6">
  <diagram name="Page-1" id="edf60f1a-56cd-e834-aa8a-f176f3a09ee4">
    <mxGraphModel dx="1002" dy="-189" grid="1" gridSize="10" guides="1" tooltips="1" connect="1" arrows="1" fold="1" page="1" pageScale="1" pageWidth="1100" pageHeight="850" background="none" math="0" shadow="0">
      <root>
        <mxCell id="0" />
        <mxCell id="1" parent="0" />
        <mxCell id="fEyFnmm577PXtpFFkUB1-14" value="" style="edgeStyle=orthogonalEdgeStyle;rounded=0;orthogonalLoop=1;jettySize=auto;html=1;" edge="1" parent="1" source="fEyFnmm577PXtpFFkUB1-2" target="fEyFnmm577PXtpFFkUB1-13">
          <mxGeometry relative="1" as="geometry" />
        </mxCell>
        <mxCell id="fEyFnmm577PXtpFFkUB1-2" value="Analytics.UI" style="whiteSpace=wrap;html=1;rounded=0;" vertex="1" parent="1">
          <mxGeometry x="185" y="1560" width="120" height="40" as="geometry" />
        </mxCell>
        <mxCell id="fEyFnmm577PXtpFFkUB1-10" style="edgeStyle=orthogonalEdgeStyle;rounded=0;orthogonalLoop=1;jettySize=auto;html=1;entryX=0;entryY=0.5;entryDx=0;entryDy=0;" edge="1" parent="1" source="fEyFnmm577PXtpFFkUB1-5" target="fEyFnmm577PXtpFFkUB1-8">
          <mxGeometry relative="1" as="geometry" />
        </mxCell>
        <mxCell id="fEyFnmm577PXtpFFkUB1-17" value="" style="edgeStyle=orthogonalEdgeStyle;rounded=0;orthogonalLoop=1;jettySize=auto;html=1;" edge="1" parent="1" source="fEyFnmm577PXtpFFkUB1-5" target="fEyFnmm577PXtpFFkUB1-2">
          <mxGeometry relative="1" as="geometry" />
        </mxCell>
        <mxCell id="fEyFnmm577PXtpFFkUB1-5" value="TestConsole" style="rounded=0;whiteSpace=wrap;html=1;" vertex="1" parent="1">
          <mxGeometry x="180" y="1650" width="130" height="40" as="geometry" />
        </mxCell>
        <mxCell id="fEyFnmm577PXtpFFkUB1-18" value="" style="edgeStyle=orthogonalEdgeStyle;rounded=0;orthogonalLoop=1;jettySize=auto;html=1;" edge="1" parent="1" source="fEyFnmm577PXtpFFkUB1-7" target="fEyFnmm577PXtpFFkUB1-8">
          <mxGeometry relative="1" as="geometry" />
        </mxCell>
        <mxCell id="fEyFnmm577PXtpFFkUB1-7" value="Analytics.WinBackGroundService" style="rounded=0;whiteSpace=wrap;html=1;" vertex="1" parent="1">
          <mxGeometry x="430" y="1640" width="190" height="45" as="geometry" />
        </mxCell>
        <mxCell id="fEyFnmm577PXtpFFkUB1-12" value="" style="edgeStyle=orthogonalEdgeStyle;rounded=0;orthogonalLoop=1;jettySize=auto;html=1;" edge="1" parent="1" source="fEyFnmm577PXtpFFkUB1-8" target="fEyFnmm577PXtpFFkUB1-11">
          <mxGeometry relative="1" as="geometry" />
        </mxCell>
        <mxCell id="fEyFnmm577PXtpFFkUB1-8" value="Analytics.Server" style="rounded=0;whiteSpace=wrap;html=1;" vertex="1" parent="1">
          <mxGeometry x="430" y="1570" width="120" height="40" as="geometry" />
        </mxCell>
        <mxCell id="fEyFnmm577PXtpFFkUB1-11" value="Analytics.QuartzServer" style="rounded=0;whiteSpace=wrap;html=1;" vertex="1" parent="1">
          <mxGeometry x="420" y="1490" width="140" height="45" as="geometry" />
        </mxCell>
        <mxCell id="fEyFnmm577PXtpFFkUB1-16" style="edgeStyle=orthogonalEdgeStyle;rounded=0;orthogonalLoop=1;jettySize=auto;html=1;entryX=0.75;entryY=1;entryDx=0;entryDy=0;" edge="1" parent="1" source="fEyFnmm577PXtpFFkUB1-13" target="fEyFnmm577PXtpFFkUB1-15">
          <mxGeometry relative="1" as="geometry" />
        </mxCell>
        <mxCell id="fEyFnmm577PXtpFFkUB1-20" value="" style="edgeStyle=orthogonalEdgeStyle;rounded=0;orthogonalLoop=1;jettySize=auto;html=1;" edge="1" parent="1" source="fEyFnmm577PXtpFFkUB1-13" target="fEyFnmm577PXtpFFkUB1-19">
          <mxGeometry relative="1" as="geometry" />
        </mxCell>
        <mxCell id="fEyFnmm577PXtpFFkUB1-13" value="Analytics.Jobs" style="rounded=0;whiteSpace=wrap;html=1;" vertex="1" parent="1">
          <mxGeometry x="185" y="1452.5" width="120" height="60" as="geometry" />
        </mxCell>
        <mxCell id="fEyFnmm577PXtpFFkUB1-46" style="edgeStyle=orthogonalEdgeStyle;rounded=0;orthogonalLoop=1;jettySize=auto;html=1;" edge="1" parent="1" source="fEyFnmm577PXtpFFkUB1-15" target="fEyFnmm577PXtpFFkUB1-42">
          <mxGeometry relative="1" as="geometry" />
        </mxCell>
        <mxCell id="fEyFnmm577PXtpFFkUB1-15" value="Analytics.Mail" style="rounded=0;whiteSpace=wrap;html=1;" vertex="1" parent="1">
          <mxGeometry x="630" y="940" width="120" height="60" as="geometry" />
        </mxCell>
        <mxCell id="fEyFnmm577PXtpFFkUB1-28" value="" style="edgeStyle=orthogonalEdgeStyle;rounded=0;orthogonalLoop=1;jettySize=auto;html=1;" edge="1" parent="1" source="fEyFnmm577PXtpFFkUB1-19" target="fEyFnmm577PXtpFFkUB1-26">
          <mxGeometry relative="1" as="geometry" />
        </mxCell>
        <mxCell id="fEyFnmm577PXtpFFkUB1-19" value="Analytics.DAL" style="rounded=0;whiteSpace=wrap;html=1;" vertex="1" parent="1">
          <mxGeometry x="280" y="1380" width="120" height="40" as="geometry" />
        </mxCell>
        <mxCell id="fEyFnmm577PXtpFFkUB1-23" value="" style="edgeStyle=orthogonalEdgeStyle;rounded=0;orthogonalLoop=1;jettySize=auto;html=1;" edge="1" parent="1" source="fEyFnmm577PXtpFFkUB1-21" target="fEyFnmm577PXtpFFkUB1-22">
          <mxGeometry relative="1" as="geometry" />
        </mxCell>
        <mxCell id="fEyFnmm577PXtpFFkUB1-21" value="Analytics.DeploymentInvoker" style="rounded=0;whiteSpace=wrap;html=1;" vertex="1" parent="1">
          <mxGeometry x="10" y="1630" width="160" height="50" as="geometry" />
        </mxCell>
        <mxCell id="fEyFnmm577PXtpFFkUB1-22" value="Analytics.DeploymentService" style="rounded=0;whiteSpace=wrap;html=1;" vertex="1" parent="1">
          <mxGeometry x="10" y="1550" width="160" height="42.5" as="geometry" />
        </mxCell>
        <mxCell id="fEyFnmm577PXtpFFkUB1-25" style="edgeStyle=orthogonalEdgeStyle;rounded=0;orthogonalLoop=1;jettySize=auto;html=1;entryX=0;entryY=0.25;entryDx=0;entryDy=0;" edge="1" parent="1" source="fEyFnmm577PXtpFFkUB1-24" target="fEyFnmm577PXtpFFkUB1-19">
          <mxGeometry relative="1" as="geometry" />
        </mxCell>
        <mxCell id="fEyFnmm577PXtpFFkUB1-24" value="UnitTests" style="whiteSpace=wrap;html=1;aspect=fixed;" vertex="1" parent="1">
          <mxGeometry x="160" y="1350" width="70" height="70" as="geometry" />
        </mxCell>
        <mxCell id="fEyFnmm577PXtpFFkUB1-32" style="edgeStyle=orthogonalEdgeStyle;rounded=0;orthogonalLoop=1;jettySize=auto;html=1;" edge="1" parent="1" source="fEyFnmm577PXtpFFkUB1-26" target="fEyFnmm577PXtpFFkUB1-31">
          <mxGeometry relative="1" as="geometry" />
        </mxCell>
        <mxCell id="fEyFnmm577PXtpFFkUB1-33" style="edgeStyle=orthogonalEdgeStyle;rounded=0;orthogonalLoop=1;jettySize=auto;html=1;entryX=1;entryY=0.5;entryDx=0;entryDy=0;" edge="1" parent="1" source="fEyFnmm577PXtpFFkUB1-26" target="fEyFnmm577PXtpFFkUB1-30">
          <mxGeometry relative="1" as="geometry" />
        </mxCell>
        <mxCell id="fEyFnmm577PXtpFFkUB1-26" value="Analytics.Services" style="rounded=0;whiteSpace=wrap;html=1;" vertex="1" parent="1">
          <mxGeometry x="250" y="1310" width="120" height="30" as="geometry" />
        </mxCell>
        <mxCell id="fEyFnmm577PXtpFFkUB1-27" style="edgeStyle=orthogonalEdgeStyle;rounded=0;orthogonalLoop=1;jettySize=auto;html=1;entryX=0.083;entryY=0.667;entryDx=0;entryDy=0;entryPerimeter=0;" edge="1" parent="1" source="fEyFnmm577PXtpFFkUB1-24" target="fEyFnmm577PXtpFFkUB1-26">
          <mxGeometry relative="1" as="geometry" />
        </mxCell>
        <mxCell id="fEyFnmm577PXtpFFkUB1-29" style="edgeStyle=orthogonalEdgeStyle;rounded=0;orthogonalLoop=1;jettySize=auto;html=1;entryX=0.5;entryY=0.333;entryDx=0;entryDy=0;entryPerimeter=0;" edge="1" parent="1">
          <mxGeometry relative="1" as="geometry">
            <mxPoint x="70" y="1560" as="sourcePoint" />
            <mxPoint x="260" y="1329.99" as="targetPoint" />
            <Array as="points">
              <mxPoint x="70" y="1330" />
            </Array>
          </mxGeometry>
        </mxCell>
        <mxCell id="fEyFnmm577PXtpFFkUB1-36" style="edgeStyle=orthogonalEdgeStyle;rounded=0;orthogonalLoop=1;jettySize=auto;html=1;entryX=0;entryY=0.5;entryDx=0;entryDy=0;" edge="1" parent="1" target="fEyFnmm577PXtpFFkUB1-34">
          <mxGeometry relative="1" as="geometry">
            <mxPoint x="219.75" y="1190" as="targetPoint" />
            <mxPoint x="169.75" y="1250" as="sourcePoint" />
          </mxGeometry>
        </mxCell>
        <mxCell id="fEyFnmm577PXtpFFkUB1-30" value="Analytics.Auth" style="rounded=0;whiteSpace=wrap;html=1;" vertex="1" parent="1">
          <mxGeometry x="130" y="1250" width="120" height="40" as="geometry" />
        </mxCell>
        <mxCell id="fEyFnmm577PXtpFFkUB1-35" style="edgeStyle=orthogonalEdgeStyle;rounded=0;orthogonalLoop=1;jettySize=auto;html=1;" edge="1" parent="1" source="fEyFnmm577PXtpFFkUB1-31" target="fEyFnmm577PXtpFFkUB1-34">
          <mxGeometry relative="1" as="geometry" />
        </mxCell>
        <mxCell id="fEyFnmm577PXtpFFkUB1-31" value="Analytics.Caching" style="rounded=0;whiteSpace=wrap;html=1;" vertex="1" parent="1">
          <mxGeometry x="380" y="1270" width="120" height="35" as="geometry" />
        </mxCell>
        <mxCell id="fEyFnmm577PXtpFFkUB1-38" style="edgeStyle=orthogonalEdgeStyle;rounded=0;orthogonalLoop=1;jettySize=auto;html=1;entryX=1;entryY=0.75;entryDx=0;entryDy=0;" edge="1" parent="1" source="fEyFnmm577PXtpFFkUB1-34" target="fEyFnmm577PXtpFFkUB1-37">
          <mxGeometry relative="1" as="geometry" />
        </mxCell>
        <mxCell id="fEyFnmm577PXtpFFkUB1-34" value="Analytics.Logging" style="rounded=0;whiteSpace=wrap;html=1;" vertex="1" parent="1">
          <mxGeometry x="290" y="1200" width="120" height="40" as="geometry" />
        </mxCell>
        <mxCell id="fEyFnmm577PXtpFFkUB1-40" value="" style="edgeStyle=orthogonalEdgeStyle;rounded=0;orthogonalLoop=1;jettySize=auto;html=1;" edge="1" parent="1" source="fEyFnmm577PXtpFFkUB1-37" target="fEyFnmm577PXtpFFkUB1-39">
          <mxGeometry relative="1" as="geometry" />
        </mxCell>
        <mxCell id="fEyFnmm577PXtpFFkUB1-37" value="Analytics.Data" style="rounded=0;whiteSpace=wrap;html=1;" vertex="1" parent="1">
          <mxGeometry x="170" y="1130" width="120" height="40" as="geometry" />
        </mxCell>
        <mxCell id="fEyFnmm577PXtpFFkUB1-39" value="Analytics.Utilities" style="rounded=0;whiteSpace=wrap;html=1;" vertex="1" parent="1">
          <mxGeometry x="170" y="1060" width="120" height="40" as="geometry" />
        </mxCell>
        <mxCell id="fEyFnmm577PXtpFFkUB1-43" value="" style="edgeStyle=orthogonalEdgeStyle;rounded=0;orthogonalLoop=1;jettySize=auto;html=1;" edge="1" parent="1" source="fEyFnmm577PXtpFFkUB1-41" target="fEyFnmm577PXtpFFkUB1-42">
          <mxGeometry relative="1" as="geometry" />
        </mxCell>
        <mxCell id="fEyFnmm577PXtpFFkUB1-41" value="Analytics.Cryptography" style="rounded=0;whiteSpace=wrap;html=1;" vertex="1" parent="1">
          <mxGeometry x="170" y="1000" width="130" height="40" as="geometry" />
        </mxCell>
        <mxCell id="fEyFnmm577PXtpFFkUB1-45" style="edgeStyle=orthogonalEdgeStyle;rounded=0;orthogonalLoop=1;jettySize=auto;html=1;entryX=0;entryY=0.5;entryDx=0;entryDy=0;" edge="1" parent="1" source="fEyFnmm577PXtpFFkUB1-42" target="fEyFnmm577PXtpFFkUB1-44">
          <mxGeometry relative="1" as="geometry" />
        </mxCell>
        <mxCell id="fEyFnmm577PXtpFFkUB1-42" value="Analytics.Configuration" style="rounded=0;whiteSpace=wrap;html=1;" vertex="1" parent="1">
          <mxGeometry x="170" y="910" width="125" height="60" as="geometry" />
        </mxCell>
        <mxCell id="fEyFnmm577PXtpFFkUB1-44" value="Analytics.Common" style="rounded=0;whiteSpace=wrap;html=1;" vertex="1" parent="1">
          <mxGeometry x="350" y="870" width="120" height="60" as="geometry" />
        </mxCell>
      </root>
    </mxGraphModel>
  </diagram>
</mxfile>
